<svg width="526" height="526" viewBox="0 0 526 526" fill="none" xmlns="http://www.w3.org/2000/svg">
<path d="M526 402.299H0V402.599H526V402.299Z" fill="#EBEBEB"/>
<path d="M249.299 355.398H46.1992C44.5992 355.398 43.0992 354.798 41.9992 353.598C40.8992 352.498 40.1992 350.898 40.1992 349.398V63.7984C40.1992 62.1984 40.8992 60.6984 41.9992 59.5984C43.0992 58.4984 44.5992 57.8984 46.1992 57.8984H249.299C250.899 57.8984 252.399 58.4984 253.499 59.6984C254.599 60.7984 255.299 62.3984 255.299 63.8984V349.398C255.299 350.998 254.699 352.498 253.499 353.598C252.399 354.698 250.899 355.398 249.299 355.398ZM46.1992 58.0984C44.6992 58.0984 43.1992 58.6984 42.0992 59.7984C40.9992 60.8984 40.3992 62.2984 40.3992 63.8984V349.398C40.3992 350.898 40.9992 352.398 42.0992 353.498C43.1992 354.598 44.5992 355.198 46.1992 355.198H249.299C250.799 355.198 252.299 354.598 253.399 353.498C254.499 352.398 255.099 350.998 255.099 349.398V63.7984C255.099 62.2984 254.499 60.7984 253.399 59.6984C252.299 58.5984 250.899 57.9984 249.299 57.9984H46.1992V58.0984Z" fill="#EBEBEB"/>
<path d="M476.899 355.398H273.699C272.099 355.398 270.599 354.798 269.499 353.598C268.399 352.498 267.699 350.898 267.699 349.398V63.7984C267.699 62.1984 268.399 60.6984 269.499 59.5984C270.599 58.4984 272.099 57.8984 273.699 57.8984H476.799C478.399 57.8984 479.899 58.4984 480.999 59.5984C482.099 60.6984 482.799 62.1984 482.799 63.7984V349.298C482.799 350.898 482.199 352.398 480.999 353.498C479.799 354.598 478.499 355.398 476.899 355.398ZM273.699 58.0984C272.199 58.0984 270.699 58.6984 269.599 59.7984C268.499 60.8984 267.899 62.2984 267.899 63.8984V349.398C267.899 350.898 268.499 352.398 269.599 353.498C270.699 354.598 272.099 355.198 273.699 355.198H476.799C478.299 355.198 479.799 354.598 480.899 353.498C481.999 352.398 482.599 350.998 482.599 349.398V63.7984C482.599 62.2984 481.999 60.7984 480.899 59.6984C479.799 58.5984 478.399 57.9984 476.799 57.9984H273.699V58.0984Z" fill="#EBEBEB"/>
<path d="M473.302 412.299H440.102V412.599H473.302V412.299Z" fill="#EBEBEB"/>
<path d="M352.799 409.398H317.699V409.698H352.799V409.398Z" fill="#EBEBEB"/>
<path d="M482.899 422.1H417.199V422.4H482.899V422.1Z" fill="#EBEBEB"/>
<path d="M75.3992 420.299H55.1992V420.599H75.3992V420.299Z" fill="#EBEBEB"/>
<path d="M116.701 420.299H84.8008V420.599H116.701V420.299Z" fill="#EBEBEB"/>
<path d="M256.798 415.898H199.398V416.198H256.798V415.898Z" fill="#EBEBEB"/>
<path d="M286.4 124.299L226.5 184.299V383.999H436.9V124.299H286.4Z" fill="white"/>
<path d="M436.898 384.5H226.498C226.298 384.5 226.198 384.4 226.098 384.3C225.998 384.2 225.898 384 225.898 383.9V184.2C225.898 184.1 225.898 184.1 225.898 184C225.898 183.9 225.998 183.9 225.998 183.8L285.998 123.8C286.098 123.7 286.198 123.6 286.398 123.6H436.798C436.898 123.6 436.898 123.6 436.998 123.6C437.098 123.6 437.098 123.7 437.198 123.7C437.298 123.8 437.298 123.8 437.298 123.9C437.298 124 437.298 124 437.298 124.1V383.7C437.298 383.8 437.298 383.8 437.298 383.9C437.298 384 437.198 384 437.198 384.1C437.098 384.2 437.098 384.2 436.998 384.2C436.998 384.4 436.898 384.5 436.898 384.5ZM226.998 383.3H436.298V124.8H286.698L226.998 184.5V383.3Z" fill="#E0E0E0"/>
<path d="M226.5 184.199L289.4 192.299L286.4 124.199L226.5 184.199Z" fill="#E6E6E6"/>
<path d="M226.5 184.199H286.4V124.199L226.5 184.199Z" fill="white"/>
<path d="M286.4 184.8H226.4C226.3 184.8 226.2 184.8 226.1 184.7C226 184.6 225.9 184.5 225.9 184.4C225.9 184.3 225.8 184.2 225.9 184.1C225.9 184 226 183.9 226.1 183.8L286.1 123.8C286.2 123.7 286.3 123.7 286.4 123.6C286.5 123.6 286.6 123.6 286.7 123.6C286.8 123.6 286.9 123.7 287 123.8C287.1 123.9 287.1 124 287.1 124.1V184.1C287.1 184.2 287 184.4 286.9 184.5C286.7 184.7 286.6 184.8 286.4 184.8ZM227.8 183.7H285.8V125.7L227.8 183.7Z" fill="#E0E0E0"/>
<path d="M343.802 270.6L379.602 234.8C380.402 234 381.002 233.1 381.502 232C381.902 231 382.202 229.8 382.202 228.7C382.202 227.6 382.002 226.5 381.502 225.4C381.102 224.4 380.402 223.4 379.602 222.6C378.802 221.8 377.902 221.2 376.802 220.7C375.802 220.3 374.602 220 373.502 220C372.402 220 371.302 220.2 370.202 220.7C369.202 221.1 368.202 221.8 367.402 222.6L331.602 258.4L295.802 222.6C294.202 221 292.002 220.1 289.702 220.1C287.402 220.1 285.202 221 283.602 222.6C282.002 224.2 281.102 226.4 281.102 228.7C281.102 231 282.002 233.2 283.602 234.8L319.402 270.6L283.602 306.4C282.002 308 281.102 310.2 281.102 312.5C281.102 314.8 282.002 317 283.602 318.6C285.202 320.2 287.402 321.1 289.702 321.1C292.002 321.1 294.202 320.2 295.802 318.6L331.602 282.8L367.402 318.6C369.002 320.2 371.202 321.1 373.502 321.1C375.802 321.1 378.002 320.2 379.602 318.6C381.202 317 382.102 314.8 382.102 312.5C382.102 310.2 381.202 308 379.602 306.4L343.802 270.6Z" fill="#F0F0F0"/>
<path d="M234.598 240.899C232.598 242.899 229.798 243.999 226.998 243.999C224.098 243.999 221.398 242.899 219.398 240.899L184.898 206.399L200.098 191.199L234.598 225.799C236.598 227.799 237.698 230.499 237.698 233.399C237.698 236.299 236.598 238.899 234.598 240.899Z" fill="#F0F0F0"/>
<path d="M184.898 206.399L200.098 191.199L201.498 192.599C202.998 194.099 203.798 195.999 203.798 198.099C203.798 200.199 202.998 202.099 201.498 203.599L197.298 207.799C195.798 209.299 193.898 210.099 191.798 210.099C189.698 210.099 187.798 209.299 186.298 207.799L184.898 206.399Z" fill="#E0E0E0"/>
<path d="M89.0986 95.4C78.6986 105.8 71.5986 119.2 68.6986 133.6C65.7986 148.1 67.2986 163.1 72.9986 176.7C78.6986 190.3 88.1986 202 100.499 210.2C112.799 218.4 127.199 222.8 141.999 222.8C156.799 222.8 171.199 218.4 183.499 210.2C195.799 202 205.399 190.3 210.999 176.7C216.699 163.1 218.099 148 215.299 133.6C212.399 119.1 205.299 105.8 194.899 95.4C187.999 88.5 179.699 82.9 170.699 79.2C161.699 75.5 151.899 73.5 142.099 73.5C132.299 73.5 122.599 75.4 113.499 79.2C104.399 83 96.0986 88.5 89.0986 95.4ZM190.499 196.8C180.899 206.4 168.699 212.9 155.399 215.6C142.099 218.2 128.299 216.9 115.799 211.7C103.299 206.5 92.4986 197.7 84.9986 186.4C77.4986 175.1 73.3986 161.8 73.3986 148.3C73.3986 134.7 77.3986 121.5 84.9986 110.2C92.4986 98.9 103.299 90.1 115.799 84.9C128.299 79.7 142.099 78.3 155.399 81C168.699 83.6 180.899 90.2 190.499 99.8C196.899 106.2 201.899 113.7 205.399 122.1C208.799 130.4 210.599 139.3 210.599 148.4C210.599 157.4 208.799 166.3 205.399 174.7C201.899 182.9 196.899 190.4 190.499 196.8Z" fill="#E0E0E0"/>
<path d="M181.199 189.998C180.699 189.998 180.199 189.898 179.799 189.598C179.399 189.298 179.099 188.898 178.899 188.498C178.699 187.998 178.699 187.498 178.799 187.098C178.899 186.598 179.099 186.198 179.499 185.798C189.399 175.798 194.999 162.398 194.999 148.298C194.999 134.198 189.399 120.798 179.499 110.798C179.199 110.598 178.999 110.298 178.899 109.998C178.799 109.698 178.699 109.398 178.699 108.998C178.699 108.698 178.699 108.298 178.899 107.998C178.999 107.698 179.199 107.398 179.499 107.198C179.699 106.998 179.999 106.798 180.299 106.598C180.599 106.498 180.999 106.398 181.299 106.398C181.599 106.398 181.999 106.498 182.299 106.598C182.599 106.698 182.899 106.998 183.099 107.198C193.999 118.098 200.099 132.798 200.099 148.198C200.099 163.598 193.999 178.298 183.099 189.198C182.899 189.398 182.599 189.598 182.299 189.698C181.899 189.998 181.499 189.998 181.199 189.998Z" fill="#E0E0E0"/>
<path d="M87.9003 163.6C87.3003 163.6 86.8003 163.4 86.3003 163.1C85.9003 162.8 85.5003 162.3 85.4003 161.7C83.6003 154 83.4003 146 84.7003 138.2C86.1003 130.4 89.0003 123 93.4003 116.3C93.8003 115.7 94.3003 115.4 95.0003 115.2C95.7003 115.1 96.3003 115.2 96.9003 115.6C97.5003 116 97.8003 116.5 98.0003 117.2C98.1003 117.9 98.0003 118.5 97.6003 119.1C93.6003 125.1 90.9003 131.9 89.7003 139.1C88.4003 146.2 88.6003 153.5 90.3003 160.6C90.4003 160.9 90.4003 161.2 90.3003 161.6C90.2003 161.9 90.1003 162.2 90.0003 162.5C89.8003 162.8 89.6003 163 89.3003 163.2C89.0003 163.4 88.7003 163.5 88.4003 163.6C88.3003 163.6 88.1003 163.6 87.9003 163.6Z" fill="#E0E0E0"/>
<path d="M102.702 189.999C102.002 189.999 101.402 189.699 100.902 189.299C96.4016 184.799 92.7016 179.599 89.9016 173.899C89.8016 173.599 89.7016 173.299 89.6016 172.999C89.6016 172.699 89.6016 172.299 89.7016 171.999C89.8016 171.699 90.0016 171.399 90.2016 171.199C90.4016 170.999 90.7016 170.799 91.0016 170.599C91.3016 170.499 91.6016 170.399 91.9016 170.299C92.2016 170.299 92.6016 170.299 92.9016 170.399C93.2016 170.499 93.5016 170.699 93.7016 170.899C93.9016 171.099 94.1016 171.399 94.3016 171.699C96.9016 176.899 100.302 181.699 104.402 185.799C104.902 186.299 105.102 186.899 105.102 187.599C105.102 188.299 104.802 188.899 104.402 189.399C104.002 189.799 103.402 189.999 102.702 189.999Z" fill="#E0E0E0"/>
<path d="M221.998 337.1L231.798 346.9L208.998 369.7C207.798 370.9 206.198 371.5 204.598 371.5C202.898 371.5 201.398 370.8 200.198 369.7L199.198 368.7C197.998 367.5 197.398 365.9 197.398 364.3C197.398 362.6 198.098 361.1 199.198 359.9L221.998 337.1Z" fill="#F0F0F0"/>
<path d="M222.001 337.1L231.801 346.9L231.301 347.4C230.201 348.5 228.801 349.1 227.301 349.1C225.801 349.1 224.401 348.5 223.301 347.4L221.501 345.6C220.401 344.5 219.801 343.1 219.801 341.6C219.801 340.1 220.401 338.7 221.501 337.6L222.001 337.1Z" fill="#E0E0E0"/>
<path d="M299.099 283.699L276.099 306.699C273.499 309.399 272.199 313.099 272.199 316.799C272.299 320.499 273.799 324.099 276.399 326.799C279.099 329.399 282.599 330.999 286.399 330.999C290.099 331.099 293.799 329.699 296.499 327.099L305.799 317.799C307.799 305.999 305.399 293.899 299.099 283.699Z" fill="#F0F0F0"/>
<path d="M307.802 305.899C307.102 296.399 303.702 287.199 297.802 279.699C292.002 272.099 284.002 266.499 274.902 263.399C265.802 260.399 256.102 260.099 246.902 262.599C237.702 265.099 229.402 270.299 223.102 277.499C216.802 284.699 212.802 293.599 211.602 303.099C210.402 312.599 212.002 322.199 216.302 330.799C220.602 339.399 227.302 346.499 235.602 351.199C243.902 355.899 253.402 358.099 263.002 357.499C275.802 356.599 287.702 350.699 296.102 340.999C304.502 331.299 308.702 318.699 307.802 305.899ZM215.302 312.399C214.702 303.599 216.702 294.899 221.002 287.299C225.402 279.699 231.902 273.499 239.702 269.599C247.602 265.699 256.402 264.199 265.102 265.299C273.802 266.399 282.002 270.099 288.602 275.799C295.202 281.599 300.002 289.199 302.302 297.599C304.602 306.099 304.302 314.999 301.602 323.399C298.802 331.699 293.602 338.999 286.702 344.399C279.802 349.799 271.402 352.999 262.602 353.599C250.902 354.399 239.302 350.499 230.402 342.799C221.602 335.099 216.202 324.099 215.302 312.399Z" fill="#E0E0E0"/>
<path d="M235.002 337.6C231.302 334.4 228.202 330.4 226.002 326C223.802 321.6 222.502 316.8 222.102 311.9C222.102 311.7 222.102 311.5 222.202 311.3C222.302 311.1 222.402 310.9 222.502 310.7C222.602 310.5 222.802 310.4 223.002 310.3C223.202 310.2 223.402 310.1 223.602 310.1C223.802 310.1 224.002 310.1 224.202 310.2C224.402 310.3 224.602 310.4 224.802 310.5C225.002 310.6 225.102 310.8 225.202 311C225.302 311.2 225.302 311.4 225.302 311.6C225.902 320.7 230.202 329.1 237.002 335.1C243.902 341.1 252.802 344.1 261.802 343.5C262.202 343.5 262.602 343.6 263.002 343.9C263.302 344.2 263.502 344.6 263.502 345C263.502 345.4 263.402 345.8 263.102 346.2C262.802 346.5 262.402 346.7 262.002 346.8C257.102 347.1 252.202 346.5 247.502 344.9C243.002 343.3 238.702 340.8 235.002 337.6Z" fill="#E0E0E0"/>
<path d="M293.1 300.899C292.9 300.699 292.7 300.399 292.6 300.099C291.3 295.599 289.2 291.399 286.2 287.799C283.3 284.199 279.6 281.199 275.5 278.999C275.1 278.799 274.9 278.499 274.8 278.099C274.7 277.699 274.7 277.299 274.9 276.899C275.1 276.499 275.4 276.199 275.8 276.099C276.2 275.999 276.6 275.999 277 276.199C281.5 278.599 285.5 281.899 288.8 285.799C292 289.799 294.4 294.399 295.8 299.299C295.9 299.499 295.9 299.699 295.8 299.899C295.8 300.099 295.7 300.299 295.6 300.499C295.5 300.699 295.4 300.799 295.2 300.999C295 301.099 294.8 301.199 294.6 301.299C294.3 301.399 294.1 301.399 293.8 301.299C293.6 301.199 293.3 300.999 293.1 300.899Z" fill="#E0E0E0"/>
<path d="M256 274.699C255.7 274.399 255.5 273.999 255.5 273.599C255.5 273.199 255.6 272.799 255.9 272.399C256.2 272.099 256.6 271.899 257 271.799C261.1 271.499 265.2 271.899 269.2 272.899C269.4 272.999 269.6 272.999 269.8 273.199C270 273.299 270.1 273.499 270.2 273.699C270.3 273.899 270.4 274.099 270.4 274.299C270.4 274.499 270.4 274.699 270.4 274.899C270.3 275.099 270.3 275.299 270.1 275.499C270 275.699 269.8 275.799 269.6 275.899C269.4 275.999 269.2 276.099 269 276.099C268.8 276.099 268.6 276.099 268.4 276.099C264.8 275.099 261 274.799 257.3 274.999C256.8 275.099 256.4 274.999 256 274.699Z" fill="#E0E0E0"/>
<path d="M263 449.8C375.7 449.8 467 444.5 467 437.9C467 431.3 375.7 426 263 426C150.3 426 59 431.3 59 437.9C59 444.5 150.3 449.8 263 449.8Z" fill="#F5F5F5"/>
<path d="M144.998 153.5C136.498 162 150.898 175.3 141.398 181.4C149.198 185.3 176.398 190.3 183.498 174.9C178.398 170.9 181.898 161.1 177.198 151.6C170.098 137.6 136.498 143.8 144.998 153.5Z" fill="#263238"/>
<path d="M145.799 153.199C143.199 152.799 134.199 157.199 140.899 169.099C146.299 178.699 141.799 179.399 141.799 179.399C141.799 179.399 147.099 179.499 143.899 172.399C140.499 164.799 138.899 156.899 145.799 153.199Z" fill="#263238"/>
<path d="M208.299 228.899C207.999 228.299 207.399 227.899 206.799 227.699C206.199 227.499 205.499 227.599 204.799 227.899L204.199 228.199C203.999 228.299 203.599 228.599 203.299 228.699C202.999 228.899 202.599 229.099 202.299 229.199C201.599 229.499 200.999 229.799 200.199 230.099C198.899 230.599 197.499 230.799 196.099 230.899C194.799 230.899 193.599 230.699 192.399 230.299C191.599 229.999 190.899 229.699 190.199 229.199C189.299 227.199 188.399 225.199 187.699 223.099C186.799 220.699 185.999 218.199 185.299 215.699C184.599 213.199 183.999 210.599 183.499 208.099C183.199 206.799 182.999 205.499 182.799 204.299L182.499 202.399C182.399 201.799 182.299 201.099 182.299 200.599V200.399C182.199 198.999 181.499 197.699 180.399 196.799C179.299 195.899 177.899 195.499 176.499 195.599C175.099 195.699 173.799 196.399 172.899 197.499C171.999 198.599 171.599 199.999 171.699 201.399C171.799 202.299 171.799 202.999 171.899 203.699C171.999 204.399 172.099 205.199 172.199 205.899C172.399 207.399 172.699 208.799 172.999 210.199C173.599 212.999 174.299 215.899 175.199 218.599C175.599 219.999 176.099 221.399 176.599 222.699C177.099 224.099 177.699 225.399 178.299 226.799C179.399 229.499 180.799 232.099 182.199 234.699L182.299 234.899C182.699 235.599 183.199 236.099 183.899 236.499C185.899 237.599 187.999 238.299 190.299 238.799C192.599 239.199 194.899 239.199 197.199 238.699C200.399 237.999 203.299 236.399 205.699 234.099C206.099 233.699 206.499 233.399 206.799 232.999C207.099 232.599 207.499 232.199 207.899 231.699C208.199 231.299 208.399 230.899 208.499 230.399C208.599 229.899 208.499 229.399 208.299 228.899Z" fill="#FFBE9D"/>
<path d="M215.299 219.1H214.999C213.999 219.1 212.999 219.3 212.099 219.7C211.199 220.1 210.399 220.8 209.799 221.5L204.699 227.9V232.3C208.799 233.9 213.999 229.6 213.999 229.6L216.599 228.9C217.499 228.7 218.299 228.1 218.799 227.4C219.299 226.6 219.499 225.7 219.399 224.8L218.999 222.2C218.899 221.3 218.399 220.5 217.799 220C216.999 219.4 216.199 219.1 215.299 219.1Z" fill="#FFBE9D"/>
<path d="M182.201 194.499C185.601 197.999 185.801 208.399 185.801 208.399L172.201 219.299C172.201 219.299 166.601 203.799 169.701 198.399C172.401 193.799 177.901 189.999 182.201 194.499Z" fill="#1C1B20"/>
<g opacity="0.2">
<path opacity="0.2" d="M182.201 194.499C185.601 197.999 185.801 208.399 185.801 208.399L172.201 219.299C172.201 219.299 166.601 203.799 169.701 198.399C172.401 193.799 177.901 189.999 182.201 194.499Z" fill="white"/>
</g>
<path d="M159.699 428.9L167.199 429.7L168.199 409.3L160.699 408.5L159.699 428.9Z" fill="#FFBE9D"/>
<path d="M168.498 424.799H159.698C159.498 424.799 159.298 424.899 159.198 424.999C159.098 425.099 158.998 425.299 158.998 425.499L158.398 433.799C158.398 434.199 158.598 434.699 158.898 434.999C159.198 435.299 159.598 435.499 160.098 435.499C163.798 435.499 163.898 435.499 168.498 435.499H180.998C184.898 435.499 184.898 431.599 183.198 431.199C175.698 429.599 172.798 427.399 170.198 425.399C169.598 424.999 169.098 424.799 168.498 424.799Z" fill="#263238"/>
<path opacity="0.2" d="M168.299 409.298L167.799 419.798H160.199L160.799 408.398L168.299 409.298Z" fill="black"/>
<path d="M172.302 246.5C172.302 246.5 178.802 300.9 178.802 325.1C173.702 358.8 169.302 417.8 169.302 417.8L158.902 417.5C158.902 417.5 154.202 353.2 158.602 325.4C153.002 300.5 146.102 243.1 146.102 243.1L172.302 246.5Z" fill="#263238"/>
<path opacity="0.2" d="M152.299 261.6C151.099 262.1 149.899 262.8 148.699 263.5C150.099 274.2 151.999 287.8 153.999 300.2C157.399 289.9 155.599 267.4 152.299 261.6Z" fill="black"/>
<path d="M78.3984 409.9L84.5984 414.2L95.2984 396.8L89.0984 392.5L78.3984 409.9Z" fill="#FFBE9D"/>
<path d="M86.1992 412L80.8992 404.9C80.7992 404.8 80.5992 404.7 80.4992 404.6C80.2992 404.6 80.0992 404.6 79.9992 404.7L72.9992 409.2C72.5992 409.5 72.3992 409.8 72.2992 410.3C72.1992 410.7 72.2992 411.2 72.5992 411.5C74.7992 414.5 74.7992 414.5 77.5992 418.2C79.2992 420.5 82.6992 425.1 85.0992 428.2C87.4992 431.4 90.4992 429 89.7992 427.4C86.5992 420.5 86.5992 416.9 86.6992 413.5C86.6992 413 86.4992 412.4 86.1992 412Z" fill="#263238"/>
<path opacity="0.2" d="M95.2992 396.8L89.7992 405.8L83.1992 402.2L89.1992 392.5L95.2992 396.8Z" fill="black"/>
<path d="M116.399 417.2C110.999 417.2 99.7986 417.2 99.5986 409.3C99.4986 403.1 107.099 400.5 113.799 400.2C114.499 400.2 115.299 400.3 115.999 400.5C116.699 400.7 117.299 401.1 117.899 401.6C118.399 402.1 118.899 402.7 119.199 403.4C119.499 404.1 119.699 404.8 119.699 405.5V405.9C127.199 405.5 132.099 403.9 133.799 401.1C137.799 394.8 130.099 378.5 122.699 362.7C113.999 344.2 104.099 323.2 103.899 303.1C103.899 302.4 103.999 301.6 104.299 301C104.599 300.3 104.999 299.7 105.499 299.2C105.999 298.7 106.599 298.3 107.299 298C107.999 297.7 108.699 297.6 109.399 297.6C110.899 297.6 112.299 298.2 113.299 299.2C114.299 300.2 114.899 301.6 114.999 303.1C115.199 320.8 124.499 340.6 132.699 358C142.199 378.2 150.399 395.6 143.099 407.1C138.999 413.9 130.199 417.2 116.399 417.2Z" fill="#1C1B20"/>
<path d="M164.002 245.399C164.002 245.399 146.102 307.599 137.302 330.099C120.302 359.599 92.1016 404.799 92.1016 404.799L83.1016 399.499C83.1016 399.499 104.102 347.299 118.302 322.999C122.102 297.799 136.502 241.699 136.502 241.699L164.002 245.399Z" fill="#263238"/>
<path d="M87.8 417C88.2 417.6 88.7 418 89.4 418.3C89.6 418.3 89.8 418.3 90 418.3C90.2 418.2 90.4 418.1 90.5 418C90.6 417.9 90.7 417.8 90.7 417.7C90.7 417.6 90.8 417.5 90.7 417.3C90.6 416 87.3 414.4 86.7 414.1H86.6C86.6 414.1 86.5 414.1 86.5 414.2V414.3V414.4C86.8 415.4 87.2 416.2 87.8 417ZM90 417C90.1 417.1 90.2 417.3 90.2 417.4V417.5C90.2 417.5 90.2 417.6 90.1 417.6C90 417.7 89.9 417.8 89.8 417.8C89.7 417.8 89.5 417.8 89.4 417.8C88.7 417.7 87.8 416.5 86.9 414.8C88.1 415.4 89.1 416.1 90 417Z" fill="#1C1B20"/>
<path d="M86.2992 414.5C87.3992 415.1 90.1992 415.6 90.6992 414.7C90.7992 414.5 90.7992 414.4 90.7992 414.2C90.7992 414 90.6992 413.8 90.5992 413.7C89.4992 411.8 86.3992 414 86.2992 414.1L86.1992 414.2V414.3C86.2992 414.4 86.2992 414.4 86.2992 414.5ZM90.2992 413.9L90.3992 414C90.4992 414.2 90.4992 414.3 90.4992 414.4C90.1992 414.9 88.0992 414.7 86.9992 414.3C87.6992 413.8 89.5992 412.9 90.2992 413.9Z" fill="#1C1B20"/>
<path d="M173.598 426.499C174.298 426.599 174.998 426.399 175.598 425.999C175.698 425.899 175.898 425.699 175.898 425.499C175.998 425.299 175.998 425.099 175.898 424.899C175.898 424.799 175.798 424.699 175.798 424.599C175.698 424.499 175.598 424.399 175.498 424.399C174.398 423.799 171.198 425.399 170.498 425.699L170.398 425.799V425.899C170.398 425.899 170.398 425.999 170.498 425.999C170.598 425.999 170.598 426.099 170.598 426.099C171.598 426.399 172.598 426.499 173.598 426.499ZM174.898 424.699C174.998 424.699 175.198 424.699 175.298 424.799C175.398 424.799 175.398 424.899 175.398 424.999C175.398 425.099 175.398 425.299 175.398 425.399C175.398 425.499 175.298 425.599 175.198 425.699C174.698 426.199 173.198 426.199 171.298 425.899C172.398 425.299 173.598 424.899 174.898 424.699Z" fill="#1C1B20"/>
<path d="M170.601 426.199C171.701 425.699 173.801 423.799 173.401 422.799C173.301 422.599 173.201 422.499 173.101 422.399C172.901 422.299 172.801 422.199 172.601 422.199C170.501 421.999 170.301 425.799 170.301 425.899V425.999C170.301 425.999 170.301 426.099 170.401 426.099C170.501 426.199 170.601 426.199 170.601 426.199ZM172.501 422.599H172.601C172.801 422.599 173.001 422.699 173.001 422.799C173.201 423.399 171.901 424.899 170.801 425.599C170.901 424.599 171.201 422.599 172.501 422.599Z" fill="#1C1B20"/>
<path d="M136.5 241.899L172.3 246.499C180.4 219.299 183 206.199 183.8 199.799C184 198.199 183.6 196.599 182.7 195.299C181.8 193.999 180.5 192.999 179 192.499C176.9 191.799 174.2 190.999 171.5 190.399C170.6 190.199 169.6 189.899 168.7 189.699C163.3 188.599 157.9 187.899 152.4 187.599C151.6 187.499 150.8 187.499 150 187.399C148.4 187.299 146.8 187.299 145.4 187.299C144.3 187.299 143.3 187.499 142.3 187.999C141.3 188.399 140.4 189.099 139.7 189.899C139 190.699 138.4 191.599 138.1 192.599C137.8 193.599 137.6 194.699 137.7 195.799C138 198.999 138.2 201.899 138.4 204.599C138.8 210.899 138.9 215.999 138.8 220.399C138.7 227.499 137.9 234.699 136.5 241.899Z" fill="#1C1B20"/>
<g opacity="0.3">
<path opacity="0.3" d="M136.5 241.899L172.3 246.499C180.4 219.299 183 206.199 183.8 199.799C184 198.199 183.6 196.599 182.7 195.299C181.8 193.999 180.5 192.999 179 192.499C176.9 191.799 174.2 190.999 171.5 190.399C170.6 190.199 169.6 189.899 168.7 189.699C163.3 188.599 157.9 187.899 152.4 187.599C151.6 187.499 150.8 187.499 150 187.399C148.4 187.299 146.8 187.299 145.4 187.299C144.3 187.299 143.3 187.499 142.3 187.999C141.3 188.399 140.4 189.099 139.7 189.899C139 190.699 138.4 191.599 138.1 192.599C137.8 193.599 137.6 194.699 137.7 195.799C138 198.999 138.2 201.899 138.4 204.599C138.8 210.899 138.9 215.999 138.8 220.399C138.7 227.499 137.9 234.699 136.5 241.899Z" fill="#1C1B20"/>
</g>
<path opacity="0.3" d="M138.9 220.199C143.6 214.099 145.3 207.099 143.8 203.199L138.5 204.399C138.9 210.699 139 215.799 138.9 220.199Z" fill="#1C1B20"/>
<path d="M171.502 190.199C170.602 189.999 169.602 189.699 168.702 189.499C163.302 188.399 157.902 187.699 152.402 187.399C151.602 187.299 150.802 187.299 150.002 187.299L148.602 187.199L149.702 188.999C149.802 189.299 153.402 195.099 162.302 201.399L164.202 202.699L166.002 201.299C167.802 199.999 169.202 198.399 170.202 196.399C171.202 194.499 171.702 192.299 171.802 190.199H171.502Z" fill="white"/>
<path d="M156.398 176.699C156.098 181.099 154.998 185.599 152.398 187.499C152.398 187.499 155.698 192.999 164.198 198.899C169.498 194.799 168.698 189.599 168.698 189.599C162.998 187.499 163.398 183.599 165.798 177.299L161.398 174.899C160.998 174.499 160.498 174.199 159.998 173.999C159.498 173.899 158.898 173.899 158.298 174.099C157.798 174.299 157.298 174.599 156.898 175.099C156.698 175.499 156.498 176.099 156.398 176.699Z" fill="#FFBE9D"/>
<path opacity="0.2" d="M161.502 174.9C161.102 174.5 160.702 174.2 160.202 174.1C159.702 174 159.102 173.9 158.602 174.1C158.102 174.2 157.602 174.5 157.302 174.9C156.902 175.3 156.702 175.8 156.602 176.3C158.302 179.7 161.002 182.4 164.302 184.2C164.402 181.8 165.002 179.5 166.002 177.3L161.502 174.9Z" fill="black"/>
<path d="M149.598 162.799C151.798 171.399 152.498 174.999 157.798 178.599C165.698 183.999 175.698 179.399 176.098 170.399C176.498 162.299 172.798 149.599 163.698 147.799C161.698 147.399 159.598 147.499 157.598 148.099C155.598 148.699 153.898 149.799 152.498 151.299C151.098 152.799 150.098 154.599 149.598 156.599C148.998 158.699 148.998 160.799 149.598 162.799Z" fill="#FFBE9D"/>
<path d="M171.3 149.6C166.1 154.2 160 157.5 153.4 159.5C153.4 159.5 159.9 173.4 147.7 169.9C144.2 158.1 147.7 151.9 150.9 149C160.6 145.8 167.5 144.7 171.3 149.6Z" fill="#263238"/>
<path d="M149.201 171.199C149.901 172.799 151.201 173.999 152.801 174.499C154.901 175.299 156.201 173.399 155.701 171.299C155.301 169.399 153.701 166.699 151.501 166.899C151.001 166.899 150.601 167.099 150.201 167.399C149.801 167.699 149.501 167.999 149.201 168.399C149.001 168.799 148.801 169.299 148.801 169.799C148.801 170.299 148.901 170.799 149.201 171.199Z" fill="#FFBE9D"/>
<path d="M136.2 239.7L134.2 242.7C134 242.9 134.3 243.2 134.7 243.3L172.3 248.1C172.6 248.1 172.9 248 173 247.8L173.7 244.6C173.7 244.4 173.5 244.2 173.1 244.1L136.8 239.5C136.7 239.5 136.6 239.5 136.5 239.5C136.4 239.5 136.3 239.6 136.2 239.7Z" fill="#1C1B20"/>
<path d="M140.601 244.399L139.601 244.299C139.401 244.299 139.301 244.199 139.301 243.999L140.301 239.899C140.301 239.799 140.401 239.799 140.501 239.699C140.601 239.699 140.701 239.699 140.701 239.699L141.701 239.799C141.901 239.799 142.001 239.899 142.001 240.099L141.001 244.199C141.001 244.299 140.801 244.399 140.601 244.399Z" fill="#263238"/>
<path d="M169.499 248.098L168.499 247.998C168.299 247.998 168.199 247.898 168.199 247.698L169.199 243.598C169.199 243.498 169.399 243.398 169.599 243.398L170.599 243.498C170.799 243.498 170.899 243.598 170.899 243.798L169.899 247.898C169.899 247.998 169.699 248.098 169.499 248.098Z" fill="#263238"/>
<path d="M155.101 246.2L154.101 246.1C153.901 246.1 153.801 246 153.801 245.8L154.801 241.7C154.801 241.6 155.001 241.5 155.201 241.5L156.201 241.6C156.401 241.6 156.501 241.7 156.501 241.9L155.501 246C155.401 246.2 155.301 246.2 155.101 246.2Z" fill="#263238"/>
<path d="M164.199 162.399C164.299 163.099 164.799 163.599 165.299 163.499C165.699 163.399 165.999 162.799 165.899 162.099C165.799 161.399 165.299 160.899 164.799 160.999C164.399 161.099 164.099 161.699 164.199 162.399Z" fill="#263238"/>
<path d="M172.199 160.899C172.299 161.599 172.799 162.099 173.299 161.999C173.699 161.899 173.999 161.299 173.899 160.599C173.799 159.899 173.299 159.399 172.799 159.499C172.299 159.499 171.999 160.199 172.199 160.899Z" fill="#263238"/>
<path d="M172.5 159.499L174.1 158.699C174.1 158.699 173.6 160.199 172.5 159.499Z" fill="#263238"/>
<path d="M170.102 162.398C171.002 163.898 172.202 165.198 173.502 166.398C173.202 166.698 172.802 166.998 172.402 167.098C172.002 167.298 171.502 167.298 171.102 167.298L170.102 162.398Z" fill="#EB996E"/>
<path d="M165.1 170.3L165 170.4V170.5L165.1 170.6H165.2C166 170.2 166.9 170 167.8 170C168.7 170 169.6 170.2 170.4 170.6C170.4 170.6 170.5 170.6 170.6 170.6C170.7 170.6 170.7 170.6 170.7 170.5C170.7 170.5 170.7 170.4 170.7 170.3C170.7 170.2 170.7 170.2 170.6 170.2C169.7 169.8 168.8 169.5 167.8 169.5C167 169.5 166 169.8 165.1 170.3C165.2 170.2 165.2 170.2 165.1 170.3Z" fill="#263238"/>
<path d="M161.501 160.199C161.601 160.199 161.601 160.099 161.601 159.999C161.801 159.499 162.101 159.099 162.601 158.799C163.001 158.499 163.501 158.199 164.001 158.099C164.101 158.099 164.101 158.099 164.201 157.999L164.301 157.899L164.401 157.799C164.401 157.699 164.401 157.699 164.401 157.599C164.401 157.499 164.401 157.499 164.401 157.399L164.301 157.299L164.201 157.199C164.101 157.199 164.101 157.199 164.001 157.199C163.301 157.299 162.701 157.599 162.201 157.999C161.701 158.399 161.201 158.899 161.001 159.499C161.001 159.599 160.901 159.699 161.001 159.799C161.001 159.899 161.101 159.999 161.101 159.999C161.201 160.099 161.301 160.099 161.301 160.099C161.301 160.299 161.401 160.299 161.501 160.199Z" fill="#263238"/>
<path d="M174.498 154.9C174.598 154.8 174.598 154.8 174.598 154.7C174.598 154.6 174.598 154.6 174.598 154.5C174.598 154.4 174.598 154.4 174.498 154.3L174.398 154.2C173.898 153.8 173.198 153.6 172.598 153.5C171.898 153.4 171.298 153.5 170.598 153.7C170.498 153.7 170.398 153.8 170.398 153.9C170.398 154 170.398 154.1 170.398 154.2C170.398 154.3 170.498 154.4 170.598 154.4C170.698 154.4 170.798 154.4 170.898 154.4C171.398 154.2 171.898 154.2 172.498 154.3C172.998 154.4 173.498 154.6 173.898 154.9C173.998 155 174.098 155 174.198 155C174.398 155 174.498 155 174.498 154.9Z" fill="#263238"/>
<path d="M164.602 160.999L166.202 160.199C166.202 160.199 165.602 161.699 164.602 160.999Z" fill="#263238"/>
<path d="M109.5 308.698C108 308.698 106.6 308.098 105.6 307.098C104.6 306.098 104 304.698 103.9 303.198C103.8 288.298 108.7 275.598 118.3 266.698C130.1 255.698 148.4 250.598 170 252.298C185.1 253.498 194.8 249.798 206.1 245.498C208 244.798 209.8 244.098 211.7 243.398C213.1 242.898 214.6 242.998 216 243.598C217.3 244.198 218.4 245.398 218.9 246.798C219.4 248.198 219.3 249.698 218.7 251.098C218.1 252.398 216.9 253.498 215.5 253.998C213.6 254.698 211.8 255.398 210 256.098C198.5 260.498 186.7 264.898 169 263.598C150.6 262.098 135.3 266.198 125.8 274.998C118.4 281.798 114.8 291.298 115 303.198C115 303.898 114.9 304.698 114.6 305.298C114.3 305.998 113.9 306.598 113.4 307.098C112.9 307.598 112.3 307.998 111.6 308.298C111 308.598 110.3 308.698 109.5 308.698Z" fill="#1C1B20"/>
<path d="M238.999 261.898L216.499 270.098C214.599 270.798 212.499 270.698 210.699 269.898C208.899 269.098 207.499 267.498 206.799 265.698L197.499 240.298C196.799 238.398 196.899 236.298 197.699 234.498C198.499 232.698 200.099 231.298 201.899 230.598L224.399 222.398L238.999 261.898Z" fill="#1C1B20"/>
<path opacity="0.7" d="M238.999 261.898L216.499 270.098C214.599 270.798 212.499 270.698 210.699 269.898C208.899 269.098 207.499 267.498 206.799 265.698L197.499 240.298C196.799 238.398 196.899 236.298 197.699 234.498C198.499 232.698 200.099 231.298 201.899 230.598L224.399 222.398L238.999 261.898Z" fill="white"/>
<path opacity="0.2" d="M214.401 225.999L224.401 222.299L238.901 261.799L228.901 265.499C228.201 264.899 227.701 264.099 227.401 263.199L214.801 228.699C214.501 227.899 214.301 226.899 214.401 225.999Z" fill="#1C1B20"/>
<path d="M247 232.199L246 232.599L248.4 239.199L249.4 238.799L247 232.199Z" fill="#1C1B20"/>
<path d="M244.501 228.5L241.001 218.8C240.401 217.2 239.301 215.7 237.901 214.7C236.501 213.7 234.701 213.2 233.001 213.2C232.001 213.2 231.001 213.4 230.101 213.7L223.701 216L223.301 215L229.701 212.7C230.801 212.3 231.901 212.1 233.001 212.1C235.001 212.1 236.901 212.7 238.501 213.8C240.101 214.9 241.301 216.5 242.001 218.4L245.501 228.1L244.501 228.5Z" fill="#1C1B20"/>
<path d="M239.1 264.7L248.5 261.3C251.6 260.2 253.2 256.8 252 253.7L239.2 218.4C238.1 215.3 234.7 213.7 231.6 214.9L222.2 218.3C219.1 219.4 217.5 222.8 218.7 225.9L231.5 261.2C232.7 264.2 236.1 265.8 239.1 264.7Z" fill="#1C1B20"/>
<path d="M233.802 229.198C234.002 229.798 234.102 230.398 233.902 230.998C233.802 231.598 233.402 232.198 233.002 232.598C232.502 232.998 232.002 233.298 231.302 233.398C230.702 233.498 230.102 233.398 229.502 233.098C228.902 232.798 228.502 232.398 228.102 231.898C227.802 231.398 227.602 230.698 227.602 230.098C227.602 229.498 227.802 228.898 228.202 228.398C228.602 227.898 229.102 227.498 229.702 227.298C230.502 226.998 231.402 227.098 232.102 227.398C232.902 227.798 233.502 228.398 233.802 229.198Z" fill="#263238"/>
<path d="M241.598 250.6C241.798 251.2 241.798 251.8 241.698 252.4C241.598 253 241.198 253.6 240.798 254C240.298 254.4 239.798 254.7 239.098 254.8C238.498 254.9 237.898 254.8 237.298 254.5C236.698 254.2 236.298 253.8 235.898 253.3C235.598 252.8 235.398 252.1 235.398 251.5C235.398 250.9 235.598 250.3 235.998 249.8C236.398 249.3 236.898 248.9 237.498 248.7C237.898 248.6 238.298 248.5 238.698 248.5C239.098 248.5 239.498 248.6 239.898 248.8C240.298 249 240.598 249.2 240.898 249.5C241.298 249.9 241.498 250.3 241.598 250.6Z" fill="#263238"/>
<path d="M149.399 248.099C147.699 246.399 145.899 244.599 144.399 242.699C142.799 240.899 141.299 238.999 139.899 237.099C138.499 235.299 137.299 233.299 136.199 231.299C135.399 229.899 134.699 228.399 134.199 226.799C134.799 224.699 135.499 222.599 136.299 220.599C137.199 218.199 138.199 215.799 139.399 213.399C140.499 210.999 141.699 208.699 142.999 206.499C143.599 205.399 144.299 204.199 144.999 203.099L146.099 201.499C146.399 200.999 146.799 200.399 147.099 199.999L147.199 199.799C147.899 198.699 148.199 197.299 147.999 195.899C147.699 194.599 146.999 193.399 145.899 192.599C144.799 191.799 143.399 191.499 142.099 191.699C140.799 191.899 139.499 192.599 138.699 193.699C138.199 194.399 137.799 194.999 137.399 195.599C136.999 196.199 136.599 196.799 136.199 197.499C135.399 198.699 134.699 199.999 133.999 201.299C132.599 203.799 131.299 206.499 130.099 209.099C129.499 210.399 128.999 211.799 128.399 213.099C127.799 214.499 127.399 215.799 126.999 217.199C126.099 219.999 125.399 222.799 124.799 225.699V225.899C124.599 226.699 124.699 227.499 124.999 228.199C125.999 230.899 127.399 233.499 128.999 235.799C130.599 237.999 132.299 240.199 134.199 242.099C136.099 243.999 137.999 245.799 140.099 247.399C142.199 248.999 144.299 250.599 146.599 251.899C147.099 252.199 147.799 252.299 148.399 252.199C148.999 252.099 149.599 251.699 149.999 251.199C150.399 250.699 150.599 250.099 150.499 249.399C150.199 249.199 149.899 248.599 149.399 248.099Z" fill="#FFBE9D"/>
<path d="M161.6 253.298L161.5 252.998C161.1 252.098 160.4 251.298 159.6 250.698C158.8 250.098 157.9 249.698 156.9 249.498L148.9 247.898L145 249.798C145.4 254.198 151.7 256.798 151.7 256.798L153.5 258.798C154.1 259.498 154.9 259.898 155.8 259.998C156.7 260.098 157.6 259.898 158.4 259.398L160.5 257.898C161.2 257.398 161.7 256.698 161.9 255.798C162.1 254.998 162 254.098 161.6 253.298Z" fill="#FFBE9D"/>
<path d="M142.202 187.899C137.802 189.899 133.102 196.999 133.102 196.999L142.602 214.699C142.602 214.699 153.402 202.299 152.502 196.099C151.702 190.799 147.902 185.399 142.202 187.899Z" fill="#1C1B20"/>
<g opacity="0.3">
<path opacity="0.3" d="M142.202 187.899C137.802 189.899 133.102 196.999 133.102 196.999L142.602 214.699C142.602 214.699 153.402 202.299 152.502 196.099C151.702 190.799 147.902 185.399 142.202 187.899Z" fill="white"/>
</g>
<path d="M445.301 420.199C436.001 420.199 426.901 418.299 422.501 412.499C401.601 385.099 401.801 330.099 402.001 276.899C402.101 248.199 404.401 221.099 401.201 200.099C399.301 187.699 392.801 179.199 386.201 174.799C376.401 168.299 362.901 171.799 357.201 173.299C356.501 173.499 355.701 173.599 355.001 173.499C354.301 173.399 353.501 173.199 352.901 172.799C352.301 172.399 351.701 171.899 351.201 171.299C350.701 170.699 350.401 169.999 350.201 169.299C350.001 168.599 350.001 167.799 350.101 167.099C350.201 166.399 350.501 165.699 350.801 164.999C351.201 164.399 351.701 163.799 352.301 163.399C352.901 162.999 353.601 162.599 354.301 162.499C361.501 160.599 378.301 156.299 392.301 165.499C401.701 171.699 409.901 182.799 412.201 198.499C415.501 220.399 413.301 247.899 413.101 276.999C412.901 328.399 412.701 381.499 431.301 405.799C432.801 407.799 438.701 409.499 448.401 408.999C449.301 408.999 450.101 408.899 450.901 408.799C450.501 407.999 450.301 407.199 450.301 406.299C450.301 404.799 450.901 403.399 451.901 402.299C452.901 401.199 454.401 400.699 455.901 400.699C468.101 400.699 474.601 401.799 475.801 407.299C476.201 408.899 476.301 412.899 470.401 415.699C466.201 417.799 455.601 420.199 445.301 420.199Z" fill="#1C1B20"/>
<path d="M322.798 424.999L311.398 420.499L317.398 400.699L328.798 405.199L322.798 424.999Z" fill="#FFBE9D"/>
<path d="M311.099 419.298L323.999 424.398C324.199 424.498 324.299 424.598 324.399 424.698C324.499 424.898 324.499 424.998 324.499 425.198L323.199 433.198C323.199 433.398 323.099 433.598 322.999 433.698C322.899 433.898 322.699 433.998 322.599 434.098C322.399 434.198 322.199 434.298 321.999 434.298C321.799 434.298 321.599 434.298 321.399 434.198C318.199 432.898 313.099 430.698 308.999 428.998C306.499 427.998 301.699 426.398 298.199 425.098C294.699 423.698 295.599 420.098 297.099 420.398C303.999 421.498 306.699 420.298 309.499 419.298C310.099 419.098 310.599 419.098 311.099 419.298Z" fill="#263238"/>
<path opacity="0.2" d="M328.898 405.199L317.498 400.699L314.398 410.899L325.798 415.399L328.898 405.199Z" fill="black"/>
<path d="M343.102 252.1C343.102 252.1 332.802 303.2 328.802 328.3C324.402 356.5 312.602 408.1 312.602 408.1L327.802 414.1C327.802 414.1 349.502 361.3 352.502 335.7C361.602 314.9 379.702 253.8 379.702 253.8L343.102 252.1Z" fill="#1C1B20"/>
<path d="M312 408.2L328.7 414.8L331.6 409.8L313 402.1L312 408.2Z" fill="#263238"/>
<path d="M307.898 419.5C307.298 419.3 306.798 418.9 306.498 418.4C306.398 418.2 306.398 418 306.398 417.8C306.398 417.6 306.498 417.4 306.498 417.2C306.498 417.1 306.598 417 306.698 416.9C306.798 416.8 306.898 416.8 306.998 416.8C308.098 416.7 310.198 419.4 310.398 419.7V419.8V419.9L310.298 420H310.198C309.398 420 308.598 419.8 307.898 419.5ZM307.298 417.3C307.198 417.3 307.098 417.2 306.998 417.2C306.898 417.2 306.898 417.2 306.798 417.4C306.698 417.5 306.698 417.7 306.698 417.8C306.698 417.9 306.698 418.1 306.798 418.2C307.098 418.8 308.198 419.3 309.698 419.5C309.098 418.7 308.298 417.9 307.298 417.3Z" fill="#1C1B20"/>
<path d="M310.1 420.1C309.3 419.2 308.4 416.8 309 415.9C309.1 415.8 309.2 415.7 309.4 415.6C309.6 415.6 309.7 415.6 309.9 415.6C310.1 415.6 310.2 415.7 310.3 415.8C310.4 415.9 310.5 416 310.6 416.2C311.3 417.4 310.5 419.8 310.5 419.9C310.5 419.9 310.5 420 310.4 420C310.4 420 310.3 420 310.3 420.1C310.2 420.1 310.2 420.1 310.1 420.1ZM309.8 416.1C309.4 416 309.4 416.1 309.3 416.2C309 416.7 309.5 418.5 310.1 419.5C310.4 418.5 310.4 417.5 310.1 416.5C310 416.3 309.9 416.1 309.8 416.1Z" fill="#1C1B20"/>
<path opacity="0.2" d="M365.398 283C359.698 290.1 357.398 308.2 357.398 323.2C361.298 312.6 365.698 299.1 369.598 286.8L365.398 283Z" fill="black"/>
<path d="M391.502 426.899H379.202L377.602 406.299H389.902L391.502 426.899Z" fill="#FFBE9D"/>
<path d="M378.6 425.898H392.4C392.6 425.898 392.8 425.998 392.9 426.098C393 426.198 393.1 426.398 393.2 426.498L395 434.398C395 434.598 395 434.798 395 434.998C395 435.198 394.9 435.398 394.7 435.498C394.6 435.698 394.4 435.798 394.2 435.898C394 435.998 393.8 435.998 393.6 435.998C390.1 435.898 384.6 435.698 380.2 435.698C377.5 435.698 372.5 435.998 368.7 435.998C365 435.998 364.5 432.298 366 431.998C372.9 430.498 374.9 428.398 377.1 426.498C377.5 426.098 378 425.898 378.6 425.898Z" fill="#263238"/>
<path opacity="0.2" d="M389.902 406.299H377.602L378.502 416.899H390.802L389.902 406.299Z" fill="black"/>
<path d="M358 252.699C358 252.699 364.8 309.599 366.2 330.099C368.2 358.599 375.9 414.899 375.9 414.899H392.2C392.2 414.899 393.9 357.399 391 331.799C395.1 309.499 393.8 254.399 393.8 254.399L358 252.699Z" fill="#1C1B20"/>
<path d="M375.199 415.2H393.099L393.899 409.5L373.699 409.1L375.199 415.2Z" fill="#263238"/>
<path d="M375.598 427.299C374.998 427.299 374.398 427.199 373.898 426.799C373.698 426.699 373.598 426.499 373.498 426.299C373.398 426.099 373.398 425.899 373.398 425.699C373.398 425.599 373.398 425.499 373.498 425.299C373.598 425.199 373.698 425.099 373.798 425.099C374.798 424.599 377.698 426.399 377.998 426.599L378.098 426.699V426.799C378.098 426.799 378.098 426.899 377.998 426.899L377.898 426.999C377.098 427.199 376.398 427.299 375.598 427.299ZM374.198 425.499C374.098 425.499 373.998 425.499 373.898 425.599C373.798 425.599 373.798 425.699 373.798 425.799C373.798 425.899 373.798 426.099 373.798 426.199C373.798 426.299 373.898 426.499 373.998 426.499C374.498 426.899 375.698 426.999 377.198 426.699C376.398 426.099 375.298 425.699 374.198 425.499Z" fill="#1C1B20"/>
<path d="M377.901 426.998H377.801C376.901 426.498 375.101 424.498 375.301 423.498C375.301 423.298 375.401 423.198 375.501 423.098C375.601 422.998 375.801 422.898 375.901 422.898C376.101 422.898 376.201 422.898 376.401 422.898C376.601 422.898 376.701 422.998 376.801 423.098C377.901 423.998 378.101 426.498 378.101 426.598V426.698C378.101 426.698 378.101 426.798 378.001 426.798C378.001 426.998 377.901 426.998 377.901 426.998ZM376.101 423.398C375.701 423.398 375.701 423.598 375.701 423.598C375.601 424.198 376.801 425.698 377.601 426.398C377.501 425.398 377.201 424.398 376.501 423.598C376.401 423.398 376.301 423.398 376.101 423.398Z" fill="#1C1B20"/>
<path d="M363.6 174.199L353.8 174.099C350.5 174.099 347.2 173.999 344 173.899C343 173.899 342 173.799 341.1 173.799C341.2 173.799 341.2 173.699 341.3 173.599C342 172.899 342.7 172.099 343.4 171.399C343.8 170.999 344.1 170.699 344.5 170.299C344.8 169.899 345.2 169.499 345.5 169.199L346.4 168.099C347.1 167.199 347.5 166.099 347.6 164.999C347.6 163.899 347.3 162.699 346.7 161.799C346.1 160.799 345.2 160.099 344.1 159.699C343 159.299 341.9 159.199 340.8 159.499L338.9 159.999C338.3 160.199 337.7 160.399 337.1 160.599C335.9 160.999 334.8 161.499 333.6 161.999C331.3 162.999 329.1 164.199 326.9 165.599C324.7 166.999 322.6 168.599 320.6 170.399C318.5 172.299 316.7 174.399 315 176.599C314.6 177.199 314.2 177.799 313.9 178.399C312.9 180.599 312.9 183.199 313.8 185.399C314.7 187.699 316.4 189.499 318.7 190.499L319.7 190.899C321.9 191.799 324.1 192.599 326.4 193.099C328.4 193.599 330.3 193.999 332.2 194.299C334.1 194.599 335.9 194.899 337.7 195.099C339.5 195.299 341.3 195.499 343.1 195.599C346.7 195.899 350.2 196.099 353.7 196.199C357.2 196.299 360.7 196.299 364.3 196.099C367.2 195.999 369.8 194.699 371.8 192.699C373.8 190.599 374.8 187.899 374.8 184.999C374.8 182.099 373.6 179.399 371.6 177.399C369.2 175.399 366.5 174.299 363.6 174.199Z" fill="#FFBE9D"/>
<path d="M369.298 193.398C360.798 203.098 340.398 199.498 340.398 199.498L341.498 175.398C348.498 173.898 355.598 172.998 362.798 172.898C374.798 172.898 376.098 185.698 369.298 193.398Z" fill="#263238"/>
<path d="M346.702 185.998C346.202 189.898 345.602 195.098 345.302 202.198C340.902 224.598 339.202 240.498 343.102 252.098C346.202 255.898 386.502 255.198 393.702 254.398C397.902 243.998 398.402 214.098 398.802 188.998C398.902 185.498 397.702 182.198 395.502 179.498C393.302 176.798 390.202 174.998 386.802 174.498C377.702 172.898 368.502 172.598 359.302 173.598C356.102 173.998 353.102 175.398 350.802 177.698C348.602 179.798 347.102 182.798 346.702 185.998Z" fill="#263238"/>
<path opacity="0.2" d="M385.801 201.299C385.901 208.999 391.501 221.199 397.701 227.399C398.101 220.899 398.301 213.899 398.501 206.799L385.801 201.299Z" fill="black"/>
<path d="M420.901 216.198L420.501 215.398C419.001 211.898 417.301 208.498 415.401 205.198C413.501 201.998 411.501 199.098 409.401 196.198C407.301 193.298 405.101 190.598 402.801 187.898C401.601 186.598 400.501 185.198 399.301 183.998L397.501 182.098L395.601 180.098C393.601 178.098 390.801 176.998 388.001 176.898C385.201 176.898 382.401 177.998 380.301 179.898C378.201 181.898 377.001 184.598 376.901 187.398C376.801 190.198 377.801 192.998 379.701 195.098L380.001 195.398L386.201 202.298C388.301 204.598 390.301 206.998 392.301 209.398C393.301 210.598 394.301 211.798 395.201 212.998C396.101 214.198 397.101 215.398 398.001 216.598C399.301 218.398 400.601 220.198 401.701 221.998C401.501 222.898 401.301 223.798 401.001 224.698C400.201 227.198 399.401 229.798 398.301 232.198C397.201 234.798 396.101 237.498 395.001 240.098C393.801 242.698 392.601 245.498 391.501 248.098L391.401 248.298C390.901 249.498 390.801 250.798 391.201 251.998C391.601 253.198 392.301 254.298 393.301 254.998C394.301 255.698 395.601 256.098 396.801 255.998C398.101 255.898 399.201 255.398 400.201 254.598C402.501 252.398 404.701 250.198 406.801 247.798C408.901 245.398 410.901 242.898 412.701 240.298C413.601 238.998 414.501 237.598 415.401 236.198C416.301 234.798 417.201 233.298 417.901 231.698C418.801 229.998 419.501 228.298 420.101 226.498C420.901 224.198 421.401 221.798 421.401 219.398C421.501 218.298 421.301 217.198 420.901 216.198Z" fill="#FFBE9D"/>
<path d="M387.598 174.599C401.798 176.999 410.998 196.199 410.998 196.199L393.898 214.599C393.898 214.599 383.998 204.599 378.098 195.299C371.798 185.199 377.398 172.799 387.598 174.599Z" fill="#263238"/>
<path d="M361.7 144.299C359.3 140.299 358.5 134.799 362.9 129.199C362.1 129.299 361.2 129.199 360.4 128.799C359.6 128.399 359 127.799 358.5 127.099C363.3 123.199 369.3 121.099 375.4 121.199C388.1 121.199 389.1 126.099 388.6 129.499C397.3 130.099 403.7 152.699 381.6 156.699C369.1 143.399 361.7 144.299 361.7 144.299Z" fill="#263238"/>
<path d="M387.9 129.898C387.9 129.898 391.4 126.298 387 121.898C388 122.198 388.9 122.698 389.6 123.398C390.3 124.098 390.9 124.998 391.1 125.998C391.8 128.598 390.1 130.598 387.9 129.898Z" fill="#263238"/>
<path d="M383 153.898C382.7 160.898 382 168.798 383.2 174.398C381.4 177.298 376.8 180.498 368.5 181.298C365.6 179.598 361.7 175.498 363 173.398C366.5 171.098 368 164.298 367 159.198L383 153.898Z" fill="#FFBE9D"/>
<path opacity="0.2" d="M379 155.299L367 159.199C367.4 161.399 367.4 163.599 367.1 165.799C370.7 165.699 375.6 162.999 377.5 160.499C378.1 159.799 378.6 158.999 378.8 158.099C379 157.099 379.1 156.199 379 155.299Z" fill="black"/>
<path d="M386.502 142.9C384.302 151.5 383.402 156.6 378.202 160.2C370.302 165.6 360.402 159.5 360.002 150.5C359.702 142.4 363.302 129.7 372.502 127.9C374.502 127.5 376.602 127.6 378.602 128.2C380.602 128.8 382.302 129.9 383.702 131.4C385.102 132.9 386.102 134.7 386.602 136.7C387.102 138.8 387.102 140.9 386.502 142.9Z" fill="#FFBE9D"/>
<path d="M384.7 130.699C380.9 133.399 376.3 144.699 385.8 149.199C394.3 141.699 392.1 130.699 384.7 130.699Z" fill="#263238"/>
<path d="M386.902 131.999C388.502 124.599 369.702 120.699 363.802 129.399C361.802 134.699 385.802 139.299 386.902 131.999Z" fill="#263238"/>
<path d="M372.9 151.998C370.9 151.098 368.9 150.598 366.7 150.398H366.6C366.6 150.398 366.5 150.398 366.5 150.498C366.5 150.498 366.5 150.498 366.5 150.598V150.698C366.5 150.798 366.5 150.798 366.6 150.898C366.7 150.898 366.7 150.998 366.8 150.998C368.8 151.098 370.9 151.698 372.7 152.498C372.8 152.498 372.8 152.498 372.9 152.498C373 152.498 373 152.398 373 152.398V152.298V152.198C373 152.098 373 151.998 372.9 151.998Z" fill="#263238"/>
<path d="M388.6 152.3C387.1 153.9 385 154.9 382.8 154.9C379.9 155 379.1 152.2 380.5 149.8C381.8 147.7 384.9 145 387.5 146.1C390.1 147.2 390.4 150.2 388.6 152.3Z" fill="#FFBE9D"/>
<path d="M372.899 142.799C372.799 143.499 372.299 143.999 371.799 143.899C371.399 143.799 371.099 143.199 371.199 142.499C371.299 141.799 371.799 141.299 372.299 141.399C372.799 141.499 372.999 141.999 372.899 142.799Z" fill="#263238"/>
<path d="M364.899 141.2C364.799 141.9 364.299 142.4 363.799 142.3C363.399 142.2 363.099 141.6 363.199 140.9C363.299 140.2 363.799 139.7 364.299 139.8C364.799 139.9 364.999 140.5 364.899 141.2Z" fill="#263238"/>
<path d="M367.398 142C366.098 144 364.598 145.8 362.898 147.4C363.998 148.8 366.298 148.5 366.298 148.5L367.398 142Z" fill="#EB996E"/>
<path d="M371.798 138.699C371.898 138.699 371.998 138.699 371.998 138.699C372.098 138.699 372.098 138.799 372.198 138.799C372.498 139.199 372.998 139.499 373.498 139.699C373.998 139.899 374.498 139.999 374.998 139.999C375.098 139.999 375.198 139.999 375.298 140.099C375.398 140.199 375.498 140.299 375.498 140.399C375.498 140.499 375.498 140.499 375.498 140.599C375.498 140.699 375.498 140.699 375.398 140.699L375.298 140.799C375.298 140.799 375.198 140.799 375.098 140.899C374.398 140.999 373.798 140.799 373.098 140.599C372.498 140.299 371.898 139.899 371.498 139.399L371.398 139.299C371.398 139.199 371.398 139.199 371.398 139.099C371.398 138.999 371.398 138.999 371.398 138.899C371.398 138.799 371.498 138.799 371.498 138.799C371.598 138.699 371.698 138.699 371.798 138.699Z" fill="#263238"/>
<path d="M362.499 136.3C362.399 136.3 362.299 136.2 362.299 136.2L362.199 136.1C362.199 136 362.199 136 362.199 135.9C362.199 135.8 362.199 135.8 362.299 135.7L362.399 135.6C362.899 135.2 363.499 134.9 364.199 134.7C364.899 134.6 365.499 134.6 366.199 134.7C366.299 134.7 366.399 134.8 366.399 134.9C366.499 135 366.499 135.1 366.399 135.2C366.399 135.3 366.299 135.4 366.199 135.4C366.099 135.4 365.999 135.5 365.899 135.4C365.399 135.3 364.799 135.3 364.299 135.4C363.799 135.5 363.299 135.8 362.899 136.1C362.899 136.1 362.799 136.2 362.699 136.2C362.599 136.2 362.499 136.4 362.499 136.3Z" fill="#263238"/>
<path d="M396.398 247.799L387.398 247.699L392.098 258.099C392.098 258.099 399.798 256.399 399.398 252.299L396.398 247.799Z" fill="#FFBE9D"/>
<path d="M382.798 254.899L384.298 257.799C384.698 258.599 385.398 259.199 386.198 259.499C386.998 259.799 387.898 259.799 388.698 259.499L392.098 258.199L387.398 247.799L383.798 250.499C383.098 250.999 382.698 251.699 382.498 252.499C382.298 253.299 382.398 254.099 382.798 254.899Z" fill="#FFBE9D"/>
<path d="M327.7 240.2C326.6 240.2 325.5 239.9 324.6 239.3C323.7 238.7 323 237.8 322.6 236.8C322.2 235.8 322.1 234.7 322.2 233.6C322.4 232.5 322.9 231.5 323.7 230.7C327.7 226.6 331.3 223.3 334.5 220.5C342.2 213.7 344.9 211 344.6 205.9C344.2 202.8 343.6 199.6 342.6 196.6C340.3 188.1 337.7 178.5 342.2 170.9C344.6 166.8 348.7 163.9 354.3 162.5C355.7 162.2 357.2 162.4 358.5 163.2C359.8 164 360.7 165.2 361 166.6C361.4 168 361.2 169.5 360.4 170.8C359.7 172.1 358.5 173 357.1 173.4C353.1 174.5 352.2 176.1 351.8 176.6C349.7 180.2 351.7 187.7 353.4 193.8C354.6 197.6 355.4 201.5 355.8 205.5C356.3 216.3 350 221.9 341.9 229C338.9 231.7 335.4 234.7 331.7 238.6C331.2 239.1 330.6 239.6 329.9 239.8C329.1 240 328.4 240.2 327.7 240.2Z" fill="#1C1B20"/>
<path d="M339.899 159.8L348.699 157.6L346.699 168.8C346.699 168.8 338.799 169 338.199 164.9L339.899 159.8Z" fill="#FFBE9D"/>
<path d="M354.802 163.5L354.102 166.4C353.902 167.3 353.402 168.1 352.602 168.6C351.802 169.1 350.902 169.3 350.002 169.2L346.602 168.7L348.602 157.5L352.602 159.2C353.402 159.5 354.002 160.1 354.402 160.9C354.902 161.8 355.002 162.7 354.802 163.5Z" fill="#FFBE9D"/>
<path d="M324.499 221.798L324.299 221.598C323.199 220.498 321.499 220.498 320.399 221.598L289.399 252.598C288.299 253.698 288.299 255.398 289.399 256.498L289.599 256.698C290.699 257.798 292.399 257.798 293.499 256.698L324.499 225.698C325.599 224.598 325.599 222.798 324.499 221.798Z" fill="#263238"/>
<path d="M340.698 237.9L340.498 237.7C339.398 236.6 337.698 236.6 336.598 237.7L305.598 268.7C304.498 269.8 304.498 271.5 305.598 272.6L305.798 272.8C306.898 273.9 308.598 273.9 309.698 272.8L340.698 241.8C341.798 240.7 341.798 239 340.698 237.9Z" fill="#263238"/>
<path d="M299.199 233.299L321.099 211.399C321.799 210.699 322.599 210.099 323.499 209.799C324.399 209.399 325.399 209.199 326.399 209.199C327.399 209.199 328.399 209.399 329.299 209.799C330.199 210.199 330.999 210.699 331.699 211.399L350.799 230.499C351.499 231.199 352.099 231.999 352.399 232.899C352.799 233.799 352.999 234.799 352.999 235.799C352.999 236.799 352.799 237.799 352.399 238.699C351.999 239.599 351.499 240.399 350.799 241.099L328.999 263.099L299.199 233.299Z" fill="#1C1B20"/>
<path opacity="0.7" d="M299.199 233.299L321.099 211.399C321.799 210.699 322.599 210.099 323.499 209.799C324.399 209.399 325.399 209.199 326.399 209.199C327.399 209.199 328.399 209.399 329.299 209.799C330.199 210.199 330.999 210.699 331.699 211.399L350.799 230.499C351.499 231.199 352.099 231.999 352.399 232.899C352.799 233.799 352.999 234.799 352.999 235.799C352.999 236.799 352.799 237.799 352.399 238.699C351.999 239.599 351.499 240.399 350.799 241.099L328.999 263.099L299.199 233.299Z" fill="white"/>
<path opacity="0.2" d="M306.702 225.699L299.102 233.299L328.902 263.099L336.502 255.499C336.202 254.599 335.702 253.799 335.002 253.199L309.002 227.299C308.402 226.599 307.602 225.999 306.702 225.699Z" fill="#1C1B20"/>
<path d="M297.901 229.498L297.401 229.998C295.101 232.298 295.101 236.098 297.401 238.398L323.901 264.898C326.201 267.198 330.001 267.198 332.301 264.898L332.801 264.398C335.101 262.098 335.101 258.298 332.801 255.998L306.301 229.498C303.901 227.198 300.201 227.198 297.901 229.498Z" fill="#1C1B20"/>
<path d="M380.301 39.8984H145.701C140.801 39.8984 136.801 43.8984 136.801 48.7984V91.5984C136.801 96.4984 140.801 100.498 145.701 100.498H380.301C385.201 100.498 389.201 96.4984 389.201 91.5984V48.7984C389.201 43.8984 385.201 39.8984 380.301 39.8984Z" fill="white"/>
<path d="M380.302 101.199H145.702C143.102 101.199 140.702 100.199 138.902 98.3992C137.102 96.5992 136.102 94.0992 136.102 91.5992V48.7992C136.102 46.1992 137.102 43.7992 138.902 41.9992C140.702 40.1992 143.202 39.1992 145.702 39.1992H380.302C382.902 39.1992 385.302 40.1992 387.102 41.9992C388.902 43.7992 389.902 46.2992 389.902 48.7992V91.5992C389.902 94.1992 388.902 96.5992 387.102 98.3992C385.302 100.199 382.902 101.199 380.302 101.199ZM145.702 40.6992C143.602 40.6992 141.502 41.5992 140.002 43.0992C138.502 44.5992 137.602 46.6992 137.602 48.7992V91.5992C137.602 93.6992 138.502 95.7992 140.002 97.2992C141.502 98.7992 143.602 99.6992 145.702 99.6992H380.302C382.402 99.6992 384.502 98.7992 386.002 97.2992C387.502 95.7992 388.402 93.6992 388.402 91.5992V48.7992C388.402 46.6992 387.502 44.5992 386.002 43.0992C384.502 41.5992 382.402 40.6992 380.302 40.6992H145.702Z" fill="#263238"/>
<path d="M263 131.5C273.8 131.5 282.5 122.8 282.5 112C282.5 101.2 273.8 92.5 263 92.5C252.2 92.5 243.5 101.2 243.5 112C243.5 122.8 252.2 131.5 263 131.5Z" fill="#263238"/>
<path d="M262.998 128.598C272.198 128.598 279.598 121.198 279.598 111.998C279.598 102.798 272.198 95.3984 262.998 95.3984C253.798 95.3984 246.398 102.798 246.398 111.998C246.398 121.198 253.798 128.598 262.998 128.598Z" fill="white"/>
<path d="M274.199 108.499H266.399L272.899 89.1992L251.699 115.699H259.499L252.999 134.999L274.199 108.499Z" fill="#1C1B20"/>
<path d="M274.901 126.199L277.201 123.899L251.101 97.7988L248.801 100.099L274.901 126.199Z" fill="#263238"/>
<path d="M160.399 74.4004L159.299 79.6004H156.199L160.699 59.4004H164.399L168.599 79.6004H165.499L164.399 74.4004H160.399ZM164.099 71.9004L163.299 67.3004C163.099 66.0004 162.799 64.1004 162.599 62.7004H162.499C162.299 64.1004 161.999 66.1004 161.699 67.3004L160.799 71.9004H164.099Z" fill="#E0E0E0"/>
<path d="M171.6 62.4H168V59.5H178.4V62.4H174.8V79.6H171.6V62.4Z" fill="#E0E0E0"/>
<path d="M188.598 70.5H183.798V76.9H189.198V79.7H180.598V59.5H188.898V62.3H183.798V67.8H188.598V70.5Z" fill="#E0E0E0"/>
<path d="M191.898 79.7V59.5H194.798L198.198 68.1C198.898 69.9 199.898 72.5 200.598 74.5H200.698C200.498 71.9 200.298 68.8 200.298 65.2V59.5H203.098V79.7H200.198L196.798 71.1C196.098 69.2 195.198 66.8 194.598 64.7H194.498C194.598 67 194.698 69.9 194.698 74.1V79.7H191.898Z" fill="#E0E0E0"/>
<path d="M215.899 79.2988C215.299 79.5988 214.299 79.7988 212.899 79.7988C208.299 79.7988 205.699 75.9988 205.699 69.7988C205.699 61.9988 209.799 59.2988 213.399 59.2988C214.699 59.2988 215.599 59.5988 215.999 59.7988L215.399 62.4988C214.899 62.2988 214.399 62.0988 213.499 62.0988C211.299 62.0988 209.099 64.0988 209.099 69.5988C209.099 74.9988 211.099 76.9988 213.599 76.9988C214.299 76.9988 215.099 76.8988 215.599 76.5988L215.899 79.2988Z" fill="#E0E0E0"/>
<path d="M221.399 59.5V79.7H218.199V59.5H221.399Z" fill="#E0E0E0"/>
<path d="M236.2 69.2996C236.2 76.8996 233.5 79.8996 230 79.8996C226 79.8996 224 75.6996 224 69.4996C224 63.4996 226.3 59.1996 230.3 59.1996C234.5 59.1996 236.2 63.8996 236.2 69.2996ZM227.3 69.5996C227.3 73.9996 228.1 77.0996 230.2 77.0996C232.3 77.0996 232.9 73.4996 232.9 69.3996C232.9 65.6996 232.3 61.9996 230.1 61.9996C228.1 61.9996 227.3 65.2996 227.3 69.5996ZM234.6 55.0996L230.9 58.3996H228.5L231.1 55.0996H234.6Z" fill="#E0E0E0"/>
<path d="M238.801 79.7V59.5H241.701L245.101 68.1C245.801 69.9 246.801 72.5 247.501 74.5H247.601C247.401 71.9 247.201 68.8 247.201 65.2V59.5H250.001V79.7H247.101L243.701 71.1C243.001 69.2 242.101 66.8 241.501 64.7H241.401C241.501 67 241.601 69.9 241.601 74.1V79.7H238.801Z" fill="#E0E0E0"/>
<path d="M261.1 74.4004L260 79.6004H257L261.5 59.4004H265.2L269.4 79.6004H266.3L265.2 74.4004H261.1ZM264.8 71.9004L264 67.3004C263.8 66.0004 263.5 64.1004 263.3 62.7004H263.2C263 64.1004 262.7 66.1004 262.4 67.3004L261.5 71.9004H264.8Z" fill="#E0E0E0"/>
<path d="M271.699 59.5H274.899V77H280.299V79.7H271.699V59.5Z" fill="#E0E0E0"/>
<path d="M290.399 59.5V72.8C290.399 76.1 291.399 77.1 292.699 77.1C294.099 77.1 294.999 76.1 294.999 72.8V59.5H298.199V72.2C298.199 77.4 296.099 79.9 292.699 79.9C288.999 79.9 287.199 77.4 287.199 72.4V59.5H290.399Z" fill="#E0E0E0"/>
<path d="M301.301 76.1988C302.001 76.5988 303.401 76.9988 304.401 76.9988C306.401 76.9988 307.501 75.8988 307.501 74.1988C307.501 72.5988 306.501 71.6988 304.901 70.4988C302.701 69.0988 301.101 67.0988 301.101 64.8988C301.101 61.7988 303.201 59.2988 307.001 59.2988C308.301 59.2988 309.501 59.6988 310.001 59.9988L309.401 62.7988C308.801 62.3988 308.001 62.0988 306.901 62.0988C305.101 62.0988 304.201 63.2988 304.201 64.5988C304.201 66.1988 305.001 66.8988 307.101 68.1988C309.601 69.8988 310.701 71.7988 310.701 73.9988C310.701 77.5988 308.101 79.8988 304.501 79.8988C303.001 79.8988 301.501 79.4988 300.801 79.0988L301.301 76.1988Z" fill="#E0E0E0"/>
<path d="M316.2 59.5V72.8C316.2 76.1 317.2 77.1 318.5 77.1C319.9 77.1 320.8 76.1 320.8 72.8V59.5H324V72.2C324 77.4 321.9 79.9 318.5 79.9C314.8 79.9 313 77.4 313 72.4V59.5H316.2Z" fill="#E0E0E0"/>
<path d="M330.001 74.4004L328.901 79.6004H325.801L330.301 59.4004H334.001L338.201 79.6004H335.101L334.001 74.4004H330.001ZM333.701 71.9004L332.901 67.3004C332.701 66.0004 332.401 64.1004 332.201 62.7004H332.001C331.801 64.1004 331.501 66.1004 331.201 67.3004L330.301 71.9004H333.701Z" fill="#E0E0E0"/>
<path d="M340.6 59.8004C341.7 59.5004 343.1 59.4004 344.4 59.4004C346.5 59.4004 348.2 59.8004 349.4 60.9004C350.5 62.0004 350.9 63.3004 350.9 65.0004C350.9 67.3004 349.8 69.2004 347.7 70.1004V70.2004C349.1 70.7004 349.9 72.1004 350.3 74.4004C350.7 76.9004 351.2 79.0004 351.5 79.7004H348.2C348 79.1004 347.5 77.2004 347.2 74.8004C346.8 72.2004 346.1 71.3004 344.4 71.3004H343.7V79.7004H340.5V59.8004H340.6ZM343.8 68.8004H344.6C346.5 68.8004 347.7 67.3004 347.7 65.2004C347.7 63.2004 346.9 61.9004 344.8 61.8004C344.4 61.8004 344 61.8004 343.7 61.9004V68.8004H343.8Z" fill="#E0E0E0"/>
<path d="M357.001 59.5V79.7H353.801V59.5H357.001Z" fill="#E0E0E0"/>
<path d="M371.899 69.2992C371.899 76.8992 369.199 79.8992 365.699 79.8992C361.699 79.8992 359.699 75.6992 359.699 69.4992C359.699 63.4992 361.999 59.1992 365.999 59.1992C370.199 59.1992 371.899 63.8992 371.899 69.2992ZM362.999 69.5992C362.999 73.9992 363.799 77.0992 365.899 77.0992C367.999 77.0992 368.599 73.4992 368.599 69.3992C368.599 65.6992 367.999 61.9992 365.799 61.9992C363.799 61.9992 362.999 65.2992 362.999 69.5992Z" fill="#E0E0E0"/>
</svg>
